ISO-10303-21;
HEADER;
/* Generated by software containing ST-Developer
 * from STEP Tools, Inc. (www.steptools.com) 
 */

FILE_DESCRIPTION(
/* description */ (''),
/* implementation_level */ '2;1');

FILE_NAME(
/* name */ 'Top.step',
/* time_stamp */ '2026-08-31T22:59:18+08:00',
/* author */ (''),
/* organization */ (''),
/* preprocessor_version */ 'ST-DEVELOPER v20.1',
/* originating_system */ 'Autodesk Translation Framework v15.8.0.0',
/* authorisation */ '');

FILE_SCHEMA (('AUTOMOTIVE_DESIGN { 1 0 10303 214 3 1 1 }'));
ENDSEC;

DATA;
#10=MECHANICAL_DESIGN_GEOMETRIC_PRESENTATION_REPRESENTATION('',(#13),#1335);
#11=SHAPE_REPRESENTATION_RELATIONSHIP('SRR','None',#1342,#12);
#12=ADVANCED_BREP_SHAPE_REPRESENTATION('',(#14),#1334);
#13=STYLED_ITEM('',(#1351),#14);
#14=MANIFOLD_SOLID_BREP('Top',#759);
#15=FACE_BOUND('',#121,.T.);
#16=FACE_BOUND('',#122,.T.);
#17=FACE_BOUND('',#123,.T.);
#18=FACE_BOUND('',#124,.T.);
#19=FACE_BOUND('',#125,.T.);
#20=FACE_BOUND('',#126,.T.);
#21=FACE_BOUND('',#127,.T.);
#22=FACE_BOUND('',#129,.T.);
#23=FACE_BOUND('',#130,.T.);
#24=FACE_BOUND('',#131,.T.);
#25=FACE_BOUND('',#132,.T.);
#26=FACE_BOUND('',#133,.T.);
#27=FACE_BOUND('',#134,.T.);
#28=FACE_BOUND('',#135,.T.);
#29=(
BOUNDED_SURFACE()
B_SPLINE_SURFACE(2,2,((#1247,#1248,#1249),(#1250,#1251,#1252),(#1253,#1254,
#1255)),.UNSPECIFIED.,.F.,.F.,.F.)
B_SPLINE_SURFACE_WITH_KNOTS((3,3),(3,3),(-1.5707963267949,0.),(1.5707963267949,
3.14159265358979),.UNSPECIFIED.)
GEOMETRIC_REPRESENTATION_ITEM()
RATIONAL_B_SPLINE_SURFACE(((1.,0.707106781186548,1.),(0.707106781186544,
0.499999999999997,0.707106781186544),(1.,0.707106781186548,1.)))
REPRESENTATION_ITEM('')
SURFACE()
);
#30=(
BOUNDED_SURFACE()
B_SPLINE_SURFACE(2,2,((#1270,#1271,#1272),(#1273,#1274,#1275),(#1276,#1277,
#1278)),.UNSPECIFIED.,.F.,.F.,.F.)
B_SPLINE_SURFACE_WITH_KNOTS((3,3),(3,3),(-1.5707963267949,0.),(-3.14159265358979,
-1.5707963267949),.UNSPECIFIED.)
GEOMETRIC_REPRESENTATION_ITEM()
RATIONAL_B_SPLINE_SURFACE(((1.,0.707106781186548,1.),(0.707106781186544,
0.499999999999997,0.707106781186544),(1.,0.707106781186548,1.)))
REPRESENTATION_ITEM('')
SURFACE()
);
#31=(
BOUNDED_SURFACE()
B_SPLINE_SURFACE(2,2,((#1290,#1291,#1292),(#1293,#1294,#1295),(#1296,#1297,
#1298)),.UNSPECIFIED.,.F.,.F.,.F.)
B_SPLINE_SURFACE_WITH_KNOTS((3,3),(3,3),(-1.5707963267949,0.),(-1.5707963267949,
0.),.UNSPECIFIED.)
GEOMETRIC_REPRESENTATION_ITEM()
RATIONAL_B_SPLINE_SURFACE(((1.,0.707106781186547,1.),(0.707106781186548,
0.5,0.707106781186548),(1.,0.707106781186547,1.)))
REPRESENTATION_ITEM('')
SURFACE()
);
#32=(
BOUNDED_SURFACE()
B_SPLINE_SURFACE(2,2,((#1310,#1311,#1312),(#1313,#1314,#1315),(#1316,#1317,
#1318)),.UNSPECIFIED.,.F.,.F.,.F.)
B_SPLINE_SURFACE_WITH_KNOTS((3,3),(3,3),(-1.5707963267949,0.),(0.,1.5707963267949),
 .UNSPECIFIED.)
GEOMETRIC_REPRESENTATION_ITEM()
RATIONAL_B_SPLINE_SURFACE(((1.,0.707106781186547,1.),(0.707106781186547,
0.5,0.707106781186547),(1.,0.707106781186547,1.)))
REPRESENTATION_ITEM('')
SURFACE()
);
#33=PLANE('',#788);
#34=PLANE('',#792);
#35=PLANE('',#796);
#36=PLANE('',#800);
#37=PLANE('',#804);
#38=PLANE('',#808);
#39=PLANE('',#812);
#40=PLANE('',#816);
#41=PLANE('',#820);
#42=PLANE('',#824);
#43=PLANE('',#831);
#44=PLANE('',#852);
#45=PLANE('',#853);
#46=PLANE('',#854);
#47=FACE_OUTER_BOUND('',#85,.T.);
#48=FACE_OUTER_BOUND('',#86,.T.);
#49=FACE_OUTER_BOUND('',#87,.T.);
#50=FACE_OUTER_BOUND('',#88,.T.);
#51=FACE_OUTER_BOUND('',#89,.T.);
#52=FACE_OUTER_BOUND('',#90,.T.);
#53=FACE_OUTER_BOUND('',#91,.T.);
#54=FACE_OUTER_BOUND('',#92,.T.);
#55=FACE_OUTER_BOUND('',#93,.T.);
#56=FACE_OUTER_BOUND('',#94,.T.);
#57=FACE_OUTER_BOUND('',#95,.T.);
#58=FACE_OUTER_BOUND('',#96,.T.);
#59=FACE_OUTER_BOUND('',#97,.T.);
#60=FACE_OUTER_BOUND('',#98,.T.);
#61=FACE_OUTER_BOUND('',#99,.T.);
#62=FACE_OUTER_BOUND('',#100,.T.);
#63=FACE_OUTER_BOUND('',#101,.T.);
#64=FACE_OUTER_BOUND('',#102,.T.);
#65=FACE_OUTER_BOUND('',#103,.T.);
#66=FACE_OUTER_BOUND('',#104,.T.);
#67=FACE_OUTER_BOUND('',#105,.T.);
#68=FACE_OUTER_BOUND('',#106,.T.);
#69=FACE_OUTER_BOUND('',#107,.T.);
#70=FACE_OUTER_BOUND('',#108,.T.);
#71=FACE_OUTER_BOUND('',#109,.T.);
#72=FACE_OUTER_BOUND('',#110,.T.);
#73=FACE_OUTER_BOUND('',#111,.T.);
#74=FACE_OUTER_BOUND('',#112,.T.);
#75=FACE_OUTER_BOUND('',#113,.T.);
#76=FACE_OUTER_BOUND('',#114,.T.);
#77=FACE_OUTER_BOUND('',#115,.T.);
#78=FACE_OUTER_BOUND('',#116,.T.);
#79=FACE_OUTER_BOUND('',#117,.T.);
#80=FACE_OUTER_BOUND('',#118,.T.);
#81=FACE_OUTER_BOUND('',#119,.T.);
#82=FACE_OUTER_BOUND('',#120,.T.);
#83=FACE_OUTER_BOUND('',#128,.T.);
#84=FACE_OUTER_BOUND('',#136,.T.);
#85=EDGE_LOOP('',(#485,#486,#487,#488));
#86=EDGE_LOOP('',(#489,#490,#491,#492));
#87=EDGE_LOOP('',(#493,#494,#495,#496));
#88=EDGE_LOOP('',(#497,#498,#499,#500));
#89=EDGE_LOOP('',(#501,#502,#503,#504));
#90=EDGE_LOOP('',(#505,#506,#507,#508));
#91=EDGE_LOOP('',(#509,#510,#511,#512));
#92=EDGE_LOOP('',(#513,#514,#515,#516));
#93=EDGE_LOOP('',(#517,#518,#519,#520));
#94=EDGE_LOOP('',(#521,#522,#523,#524));
#95=EDGE_LOOP('',(#525,#526,#527,#528));
#96=EDGE_LOOP('',(#529,#530,#531,#532));
#97=EDGE_LOOP('',(#533,#534,#535,#536));
#98=EDGE_LOOP('',(#537,#538,#539,#540));
#99=EDGE_LOOP('',(#541,#542,#543,#544));
#100=EDGE_LOOP('',(#545,#546,#547,#548));
#101=EDGE_LOOP('',(#549,#550,#551,#552));
#102=EDGE_LOOP('',(#553,#554,#555,#556));
#103=EDGE_LOOP('',(#557,#558,#559,#560));
#104=EDGE_LOOP('',(#561,#562,#563,#564));
#105=EDGE_LOOP('',(#565,#566,#567,#568));
#106=EDGE_LOOP('',(#569,#570,#571,#572));
#107=EDGE_LOOP('',(#573,#574,#575,#576));
#108=EDGE_LOOP('',(#577,#578,#579,#580));
#109=EDGE_LOOP('',(#581,#582,#583,#584));
#110=EDGE_LOOP('',(#585,#586,#587,#588));
#111=EDGE_LOOP('',(#589,#590,#591,#592));
#112=EDGE_LOOP('',(#593,#594,#595,#596));
#113=EDGE_LOOP('',(#597,#598,#599,#600));
#114=EDGE_LOOP('',(#601,#602,#603,#604));
#115=EDGE_LOOP('',(#605,#606,#607,#608));
#116=EDGE_LOOP('',(#609,#610,#611,#612));
#117=EDGE_LOOP('',(#613,#614,#615,#616));
#118=EDGE_LOOP('',(#617,#618,#619,#620));
#119=EDGE_LOOP('',(#621,#622,#623,#624));
#120=EDGE_LOOP('',(#625,#626,#627,#628,#629,#630,#631,#632));
#121=EDGE_LOOP('',(#633,#634,#635,#636,#637,#638,#639,#640));
#122=EDGE_LOOP('',(#641,#642,#643,#644,#645,#646,#647,#648));
#123=EDGE_LOOP('',(#649,#650,#651,#652,#653,#654,#655,#656));
#124=EDGE_LOOP('',(#657));
#125=EDGE_LOOP('',(#658));
#126=EDGE_LOOP('',(#659));
#127=EDGE_LOOP('',(#660));
#128=EDGE_LOOP('',(#661,#662,#663,#664,#665,#666,#667,#668));
#129=EDGE_LOOP('',(#669,#670,#671,#672,#673,#674,#675,#676));
#130=EDGE_LOOP('',(#677,#678,#679,#680,#681,#682,#683,#684));
#131=EDGE_LOOP('',(#685,#686,#687,#688,#689,#690,#691,#692));
#132=EDGE_LOOP('',(#693));
#133=EDGE_LOOP('',(#694));
#134=EDGE_LOOP('',(#695));
#135=EDGE_LOOP('',(#696));
#136=EDGE_LOOP('',(#697,#698,#699,#700));
#137=LINE('',#1086,#197);
#138=LINE('',#1092,#198);
#139=LINE('',#1098,#199);
#140=LINE('',#1104,#200);
#141=LINE('',#1111,#201);
#142=LINE('',#1114,#202);
#143=LINE('',#1117,#203);
#144=LINE('',#1119,#204);
#145=LINE('',#1120,#205);
#146=LINE('',#1126,#206);
#147=LINE('',#1129,#207);
#148=LINE('',#1132,#208);
#149=LINE('',#1134,#209);
#150=LINE('',#1135,#210);
#151=LINE('',#1141,#211);
#152=LINE('',#1144,#212);
#153=LINE('',#1147,#213);
#154=LINE('',#1149,#214);
#155=LINE('',#1150,#215);
#156=LINE('',#1155,#216);
#157=LINE('',#1158,#217);
#158=LINE('',#1159,#218);
#159=LINE('',#1164,#219);
#160=LINE('',#1168,#220);
#161=LINE('',#1170,#221);
#162=LINE('',#1171,#222);
#163=LINE('',#1176,#223);
#164=LINE('',#1180,#224);
#165=LINE('',#1182,#225);
#166=LINE('',#1183,#226);
#167=LINE('',#1188,#227);
#168=LINE('',#1191,#228);
#169=LINE('',#1192,#229);
#170=LINE('',#1197,#230);
#171=LINE('',#1200,#231);
#172=LINE('',#1201,#232);
#173=LINE('',#1207,#233);
#174=LINE('',#1210,#234);
#175=LINE('',#1213,#235);
#176=LINE('',#1215,#236);
#177=LINE('',#1216,#237);
#178=LINE('',#1222,#238);
#179=LINE('',#1225,#239);
#180=LINE('',#1228,#240);
#181=LINE('',#1230,#241);
#182=LINE('',#1231,#242);
#183=LINE('',#1237,#243);
#184=LINE('',#1242,#244);
#185=LINE('',#1245,#245);
#186=LINE('',#1246,#246);
#187=LINE('',#1268,#247);
#188=LINE('',#1269,#248);
#189=LINE('',#1288,#249);
#190=LINE('',#1289,#250);
#191=LINE('',#1308,#251);
#192=LINE('',#1309,#252);
#193=LINE('',#1325,#253);
#194=LINE('',#1326,#254);
#195=LINE('',#1328,#255);
#196=LINE('',#1330,#256);
#197=VECTOR('',#861,1.6);
#198=VECTOR('',#868,1.6);
#199=VECTOR('',#875,1.6);
#200=VECTOR('',#882,1.6);
#201=VECTOR('',#889,10.);
#202=VECTOR('',#892,10.);
#203=VECTOR('',#895,10.);
#204=VECTOR('',#896,10.);
#205=VECTOR('',#897,10.);
#206=VECTOR('',#902,10.);
#207=VECTOR('',#905,10.);
#208=VECTOR('',#908,10.);
#209=VECTOR('',#909,10.);
#210=VECTOR('',#910,10.);
#211=VECTOR('',#915,10.);
#212=VECTOR('',#918,10.);
#213=VECTOR('',#921,10.);
#214=VECTOR('',#922,10.);
#215=VECTOR('',#923,10.);
#216=VECTOR('',#928,10.);
#217=VECTOR('',#933,10.);
#218=VECTOR('',#934,10.);
#219=VECTOR('',#939,10.);
#220=VECTOR('',#944,10.);
#221=VECTOR('',#945,10.);
#222=VECTOR('',#946,10.);
#223=VECTOR('',#951,10.);
#224=VECTOR('',#956,10.);
#225=VECTOR('',#957,10.);
#226=VECTOR('',#958,10.);
#227=VECTOR('',#963,10.);
#228=VECTOR('',#968,10.);
#229=VECTOR('',#969,10.);
#230=VECTOR('',#974,10.);
#231=VECTOR('',#979,10.);
#232=VECTOR('',#980,10.);
#233=VECTOR('',#985,10.);
#234=VECTOR('',#988,10.);
#235=VECTOR('',#991,10.);
#236=VECTOR('',#992,10.);
#237=VECTOR('',#993,10.);
#238=VECTOR('',#998,10.);
#239=VECTOR('',#1001,10.);
#240=VECTOR('',#1004,10.);
#241=VECTOR('',#1005,10.);
#242=VECTOR('',#1006,10.);
#243=VECTOR('',#1013,10.);
#244=VECTOR('',#1018,10.);
#245=VECTOR('',#1023,10.);
#246=VECTOR('',#1024,10.);
#247=VECTOR('',#1037,10.);
#248=VECTOR('',#1038,10.);
#249=VECTOR('',#1049,10.);
#250=VECTOR('',#1050,10.);
#251=VECTOR('',#1061,10.);
#252=VECTOR('',#1062,10.);
#253=VECTOR('',#1071,10.);
#254=VECTOR('',#1072,10.);
#255=VECTOR('',#1075,10.);
#256=VECTOR('',#1078,10.);
#257=CIRCLE('',#774,1.6);
#258=CIRCLE('',#775,1.6);
#259=CIRCLE('',#777,1.6);
#260=CIRCLE('',#778,1.6);
#261=CIRCLE('',#780,1.6);
#262=CIRCLE('',#781,1.6);
#263=CIRCLE('',#783,1.6);
#264=CIRCLE('',#784,1.6);
#265=CIRCLE('',#786,1.);
#266=CIRCLE('',#787,1.);
#267=CIRCLE('',#790,1.);
#268=CIRCLE('',#791,1.);
#269=CIRCLE('',#794,1.);
#270=CIRCLE('',#795,1.);
#271=CIRCLE('',#798,1.);
#272=CIRCLE('',#799,1.);
#273=CIRCLE('',#802,1.);
#274=CIRCLE('',#803,1.);
#275=CIRCLE('',#806,1.);
#276=CIRCLE('',#807,1.);
#277=CIRCLE('',#810,1.);
#278=CIRCLE('',#811,1.);
#279=CIRCLE('',#814,1.);
#280=CIRCLE('',#815,1.);
#281=CIRCLE('',#818,1.);
#282=CIRCLE('',#819,1.);
#283=CIRCLE('',#822,1.);
#284=CIRCLE('',#823,1.);
#285=CIRCLE('',#826,1.);
#286=CIRCLE('',#827,1.);
#287=CIRCLE('',#829,1.);
#288=CIRCLE('',#830,1.);
#289=CIRCLE('',#832,2.);
#290=CIRCLE('',#833,1.);
#291=CIRCLE('',#834,2.);
#292=CIRCLE('',#835,3.);
#293=CIRCLE('',#837,2.);
#294=CIRCLE('',#838,1.);
#295=CIRCLE('',#839,2.);
#296=CIRCLE('',#840,3.);
#297=CIRCLE('',#842,2.);
#298=CIRCLE('',#843,1.);
#299=CIRCLE('',#844,2.);
#300=CIRCLE('',#845,3.);
#301=CIRCLE('',#847,2.);
#302=CIRCLE('',#848,1.);
#303=CIRCLE('',#849,2.);
#304=CIRCLE('',#850,3.);
#305=VERTEX_POINT('',#1083);
#306=VERTEX_POINT('',#1085);
#307=VERTEX_POINT('',#1089);
#308=VERTEX_POINT('',#1091);
#309=VERTEX_POINT('',#1095);
#310=VERTEX_POINT('',#1097);
#311=VERTEX_POINT('',#1101);
#312=VERTEX_POINT('',#1103);
#313=VERTEX_POINT('',#1107);
#314=VERTEX_POINT('',#1108);
#315=VERTEX_POINT('',#1110);
#316=VERTEX_POINT('',#1112);
#317=VERTEX_POINT('',#1116);
#318=VERTEX_POINT('',#1118);
#319=VERTEX_POINT('',#1122);
#320=VERTEX_POINT('',#1123);
#321=VERTEX_POINT('',#1125);
#322=VERTEX_POINT('',#1127);
#323=VERTEX_POINT('',#1131);
#324=VERTEX_POINT('',#1133);
#325=VERTEX_POINT('',#1137);
#326=VERTEX_POINT('',#1138);
#327=VERTEX_POINT('',#1140);
#328=VERTEX_POINT('',#1142);
#329=VERTEX_POINT('',#1146);
#330=VERTEX_POINT('',#1148);
#331=VERTEX_POINT('',#1152);
#332=VERTEX_POINT('',#1154);
#333=VERTEX_POINT('',#1161);
#334=VERTEX_POINT('',#1163);
#335=VERTEX_POINT('',#1167);
#336=VERTEX_POINT('',#1169);
#337=VERTEX_POINT('',#1173);
#338=VERTEX_POINT('',#1175);
#339=VERTEX_POINT('',#1179);
#340=VERTEX_POINT('',#1181);
#341=VERTEX_POINT('',#1185);
#342=VERTEX_POINT('',#1187);
#343=VERTEX_POINT('',#1194);
#344=VERTEX_POINT('',#1196);
#345=VERTEX_POINT('',#1203);
#346=VERTEX_POINT('',#1204);
#347=VERTEX_POINT('',#1206);
#348=VERTEX_POINT('',#1208);
#349=VERTEX_POINT('',#1212);
#350=VERTEX_POINT('',#1214);
#351=VERTEX_POINT('',#1218);
#352=VERTEX_POINT('',#1219);
#353=VERTEX_POINT('',#1221);
#354=VERTEX_POINT('',#1223);
#355=VERTEX_POINT('',#1227);
#356=VERTEX_POINT('',#1229);
#357=VERTEX_POINT('',#1233);
#358=VERTEX_POINT('',#1235);
#359=VERTEX_POINT('',#1239);
#360=VERTEX_POINT('',#1241);
#361=VERTEX_POINT('',#1256);
#362=VERTEX_POINT('',#1257);
#363=VERTEX_POINT('',#1259);
#364=VERTEX_POINT('',#1261);
#365=VERTEX_POINT('',#1265);
#366=VERTEX_POINT('',#1266);
#367=VERTEX_POINT('',#1279);
#368=VERTEX_POINT('',#1281);
#369=VERTEX_POINT('',#1285);
#370=VERTEX_POINT('',#1286);
#371=VERTEX_POINT('',#1299);
#372=VERTEX_POINT('',#1301);
#373=VERTEX_POINT('',#1305);
#374=VERTEX_POINT('',#1306);
#375=VERTEX_POINT('',#1319);
#376=VERTEX_POINT('',#1321);
#377=EDGE_CURVE('',#305,#305,#257,.T.);
#378=EDGE_CURVE('',#305,#306,#137,.T.);
#379=EDGE_CURVE('',#306,#306,#258,.T.);
#380=EDGE_CURVE('',#307,#307,#259,.T.);
#381=EDGE_CURVE('',#307,#308,#138,.T.);
#382=EDGE_CURVE('',#308,#308,#260,.T.);
#383=EDGE_CURVE('',#309,#309,#261,.T.);
#384=EDGE_CURVE('',#309,#310,#139,.T.);
#385=EDGE_CURVE('',#310,#310,#262,.T.);
#386=EDGE_CURVE('',#311,#311,#263,.T.);
#387=EDGE_CURVE('',#311,#312,#140,.T.);
#388=EDGE_CURVE('',#312,#312,#264,.T.);
#389=EDGE_CURVE('',#313,#314,#265,.T.);
#390=EDGE_CURVE('',#314,#315,#141,.T.);
#391=EDGE_CURVE('',#315,#316,#266,.T.);
#392=EDGE_CURVE('',#316,#313,#142,.T.);
#393=EDGE_CURVE('',#317,#314,#143,.T.);
#394=EDGE_CURVE('',#318,#317,#144,.T.);
#395=EDGE_CURVE('',#315,#318,#145,.T.);
#396=EDGE_CURVE('',#319,#320,#267,.T.);
#397=EDGE_CURVE('',#320,#321,#146,.T.);
#398=EDGE_CURVE('',#321,#322,#268,.T.);
#399=EDGE_CURVE('',#322,#319,#147,.T.);
#400=EDGE_CURVE('',#323,#320,#148,.T.);
#401=EDGE_CURVE('',#324,#323,#149,.T.);
#402=EDGE_CURVE('',#321,#324,#150,.T.);
#403=EDGE_CURVE('',#325,#326,#269,.T.);
#404=EDGE_CURVE('',#326,#327,#151,.T.);
#405=EDGE_CURVE('',#327,#328,#270,.T.);
#406=EDGE_CURVE('',#328,#325,#152,.T.);
#407=EDGE_CURVE('',#329,#326,#153,.T.);
#408=EDGE_CURVE('',#330,#329,#154,.T.);
#409=EDGE_CURVE('',#327,#330,#155,.T.);
#410=EDGE_CURVE('',#323,#331,#271,.T.);
#411=EDGE_CURVE('',#331,#332,#156,.T.);
#412=EDGE_CURVE('',#332,#324,#272,.T.);
#413=EDGE_CURVE('',#332,#328,#157,.T.);
#414=EDGE_CURVE('',#325,#331,#158,.T.);
#415=EDGE_CURVE('',#317,#333,#273,.T.);
#416=EDGE_CURVE('',#333,#334,#159,.T.);
#417=EDGE_CURVE('',#334,#318,#274,.T.);
#418=EDGE_CURVE('',#335,#333,#160,.T.);
#419=EDGE_CURVE('',#336,#335,#161,.T.);
#420=EDGE_CURVE('',#334,#336,#162,.T.);
#421=EDGE_CURVE('',#335,#337,#275,.T.);
#422=EDGE_CURVE('',#337,#338,#163,.T.);
#423=EDGE_CURVE('',#338,#336,#276,.T.);
#424=EDGE_CURVE('',#339,#337,#164,.T.);
#425=EDGE_CURVE('',#340,#339,#165,.T.);
#426=EDGE_CURVE('',#338,#340,#166,.T.);
#427=EDGE_CURVE('',#339,#341,#277,.T.);
#428=EDGE_CURVE('',#341,#342,#167,.T.);
#429=EDGE_CURVE('',#342,#340,#278,.T.);
#430=EDGE_CURVE('',#342,#316,#168,.T.);
#431=EDGE_CURVE('',#313,#341,#169,.T.);
#432=EDGE_CURVE('',#329,#343,#279,.T.);
#433=EDGE_CURVE('',#343,#344,#170,.T.);
#434=EDGE_CURVE('',#344,#330,#280,.T.);
#435=EDGE_CURVE('',#344,#322,#171,.T.);
#436=EDGE_CURVE('',#319,#343,#172,.T.);
#437=EDGE_CURVE('',#345,#346,#281,.T.);
#438=EDGE_CURVE('',#346,#347,#173,.T.);
#439=EDGE_CURVE('',#347,#348,#282,.T.);
#440=EDGE_CURVE('',#348,#345,#174,.T.);
#441=EDGE_CURVE('',#349,#346,#175,.T.);
#442=EDGE_CURVE('',#350,#349,#176,.T.);
#443=EDGE_CURVE('',#347,#350,#177,.T.);
#444=EDGE_CURVE('',#351,#352,#283,.T.);
#445=EDGE_CURVE('',#352,#353,#178,.T.);
#446=EDGE_CURVE('',#353,#354,#284,.T.);
#447=EDGE_CURVE('',#354,#351,#179,.T.);
#448=EDGE_CURVE('',#355,#352,#180,.T.);
#449=EDGE_CURVE('',#356,#355,#181,.T.);
#450=EDGE_CURVE('',#353,#356,#182,.T.);
#451=EDGE_CURVE('',#357,#356,#285,.T.);
#452=EDGE_CURVE('',#355,#358,#286,.T.);
#453=EDGE_CURVE('',#358,#357,#183,.T.);
#454=EDGE_CURVE('',#349,#359,#287,.T.);
#455=EDGE_CURVE('',#359,#360,#184,.T.);
#456=EDGE_CURVE('',#360,#350,#288,.T.);
#457=EDGE_CURVE('',#360,#358,#185,.T.);
#458=EDGE_CURVE('',#357,#359,#186,.T.);
#459=EDGE_CURVE('',#361,#362,#289,.T.);
#460=EDGE_CURVE('',#362,#363,#290,.T.);
#461=EDGE_CURVE('',#363,#364,#291,.T.);
#462=EDGE_CURVE('',#364,#361,#292,.T.);
#463=EDGE_CURVE('',#365,#366,#293,.T.);
#464=EDGE_CURVE('',#364,#366,#187,.T.);
#465=EDGE_CURVE('',#363,#365,#188,.T.);
#466=EDGE_CURVE('',#365,#367,#294,.T.);
#467=EDGE_CURVE('',#367,#368,#295,.T.);
#468=EDGE_CURVE('',#368,#366,#296,.T.);
#469=EDGE_CURVE('',#369,#370,#297,.T.);
#470=EDGE_CURVE('',#368,#370,#189,.T.);
#471=EDGE_CURVE('',#367,#369,#190,.T.);
#472=EDGE_CURVE('',#369,#371,#298,.T.);
#473=EDGE_CURVE('',#371,#372,#299,.T.);
#474=EDGE_CURVE('',#372,#370,#300,.T.);
#475=EDGE_CURVE('',#373,#374,#301,.T.);
#476=EDGE_CURVE('',#372,#374,#191,.T.);
#477=EDGE_CURVE('',#371,#373,#192,.T.);
#478=EDGE_CURVE('',#373,#375,#302,.T.);
#479=EDGE_CURVE('',#375,#376,#303,.T.);
#480=EDGE_CURVE('',#376,#374,#304,.T.);
#481=EDGE_CURVE('',#376,#361,#193,.T.);
#482=EDGE_CURVE('',#375,#362,#194,.T.);
#483=EDGE_CURVE('',#351,#348,#195,.T.);
#484=EDGE_CURVE('',#345,#354,#196,.T.);
#485=ORIENTED_EDGE('',*,*,#377,.F.);
#486=ORIENTED_EDGE('',*,*,#378,.T.);
#487=ORIENTED_EDGE('',*,*,#379,.F.);
#488=ORIENTED_EDGE('',*,*,#378,.F.);
#489=ORIENTED_EDGE('',*,*,#380,.F.);
#490=ORIENTED_EDGE('',*,*,#381,.T.);
#491=ORIENTED_EDGE('',*,*,#382,.F.);
#492=ORIENTED_EDGE('',*,*,#381,.F.);
#493=ORIENTED_EDGE('',*,*,#383,.F.);
#494=ORIENTED_EDGE('',*,*,#384,.T.);
#495=ORIENTED_EDGE('',*,*,#385,.F.);
#496=ORIENTED_EDGE('',*,*,#384,.F.);
#497=ORIENTED_EDGE('',*,*,#386,.F.);
#498=ORIENTED_EDGE('',*,*,#387,.T.);
#499=ORIENTED_EDGE('',*,*,#388,.F.);
#500=ORIENTED_EDGE('',*,*,#387,.F.);
#501=ORIENTED_EDGE('',*,*,#389,.T.);
#502=ORIENTED_EDGE('',*,*,#390,.T.);
#503=ORIENTED_EDGE('',*,*,#391,.T.);
#504=ORIENTED_EDGE('',*,*,#392,.T.);
#505=ORIENTED_EDGE('',*,*,#390,.F.);
#506=ORIENTED_EDGE('',*,*,#393,.F.);
#507=ORIENTED_EDGE('',*,*,#394,.F.);
#508=ORIENTED_EDGE('',*,*,#395,.F.);
#509=ORIENTED_EDGE('',*,*,#396,.T.);
#510=ORIENTED_EDGE('',*,*,#397,.T.);
#511=ORIENTED_EDGE('',*,*,#398,.T.);
#512=ORIENTED_EDGE('',*,*,#399,.T.);
#513=ORIENTED_EDGE('',*,*,#397,.F.);
#514=ORIENTED_EDGE('',*,*,#400,.F.);
#515=ORIENTED_EDGE('',*,*,#401,.F.);
#516=ORIENTED_EDGE('',*,*,#402,.F.);
#517=ORIENTED_EDGE('',*,*,#403,.T.);
#518=ORIENTED_EDGE('',*,*,#404,.T.);
#519=ORIENTED_EDGE('',*,*,#405,.T.);
#520=ORIENTED_EDGE('',*,*,#406,.T.);
#521=ORIENTED_EDGE('',*,*,#404,.F.);
#522=ORIENTED_EDGE('',*,*,#407,.F.);
#523=ORIENTED_EDGE('',*,*,#408,.F.);
#524=ORIENTED_EDGE('',*,*,#409,.F.);
#525=ORIENTED_EDGE('',*,*,#410,.T.);
#526=ORIENTED_EDGE('',*,*,#411,.T.);
#527=ORIENTED_EDGE('',*,*,#412,.T.);
#528=ORIENTED_EDGE('',*,*,#401,.T.);
#529=ORIENTED_EDGE('',*,*,#406,.F.);
#530=ORIENTED_EDGE('',*,*,#413,.F.);
#531=ORIENTED_EDGE('',*,*,#411,.F.);
#532=ORIENTED_EDGE('',*,*,#414,.F.);
#533=ORIENTED_EDGE('',*,*,#415,.T.);
#534=ORIENTED_EDGE('',*,*,#416,.T.);
#535=ORIENTED_EDGE('',*,*,#417,.T.);
#536=ORIENTED_EDGE('',*,*,#394,.T.);
#537=ORIENTED_EDGE('',*,*,#416,.F.);
#538=ORIENTED_EDGE('',*,*,#418,.F.);
#539=ORIENTED_EDGE('',*,*,#419,.F.);
#540=ORIENTED_EDGE('',*,*,#420,.F.);
#541=ORIENTED_EDGE('',*,*,#421,.T.);
#542=ORIENTED_EDGE('',*,*,#422,.T.);
#543=ORIENTED_EDGE('',*,*,#423,.T.);
#544=ORIENTED_EDGE('',*,*,#419,.T.);
#545=ORIENTED_EDGE('',*,*,#422,.F.);
#546=ORIENTED_EDGE('',*,*,#424,.F.);
#547=ORIENTED_EDGE('',*,*,#425,.F.);
#548=ORIENTED_EDGE('',*,*,#426,.F.);
#549=ORIENTED_EDGE('',*,*,#427,.T.);
#550=ORIENTED_EDGE('',*,*,#428,.T.);
#551=ORIENTED_EDGE('',*,*,#429,.T.);
#552=ORIENTED_EDGE('',*,*,#425,.T.);
#553=ORIENTED_EDGE('',*,*,#392,.F.);
#554=ORIENTED_EDGE('',*,*,#430,.F.);
#555=ORIENTED_EDGE('',*,*,#428,.F.);
#556=ORIENTED_EDGE('',*,*,#431,.F.);
#557=ORIENTED_EDGE('',*,*,#432,.T.);
#558=ORIENTED_EDGE('',*,*,#433,.T.);
#559=ORIENTED_EDGE('',*,*,#434,.T.);
#560=ORIENTED_EDGE('',*,*,#408,.T.);
#561=ORIENTED_EDGE('',*,*,#399,.F.);
#562=ORIENTED_EDGE('',*,*,#435,.F.);
#563=ORIENTED_EDGE('',*,*,#433,.F.);
#564=ORIENTED_EDGE('',*,*,#436,.F.);
#565=ORIENTED_EDGE('',*,*,#437,.T.);
#566=ORIENTED_EDGE('',*,*,#438,.T.);
#567=ORIENTED_EDGE('',*,*,#439,.T.);
#568=ORIENTED_EDGE('',*,*,#440,.T.);
#569=ORIENTED_EDGE('',*,*,#438,.F.);
#570=ORIENTED_EDGE('',*,*,#441,.F.);
#571=ORIENTED_EDGE('',*,*,#442,.F.);
#572=ORIENTED_EDGE('',*,*,#443,.F.);
#573=ORIENTED_EDGE('',*,*,#444,.T.);
#574=ORIENTED_EDGE('',*,*,#445,.T.);
#575=ORIENTED_EDGE('',*,*,#446,.T.);
#576=ORIENTED_EDGE('',*,*,#447,.T.);
#577=ORIENTED_EDGE('',*,*,#445,.F.);
#578=ORIENTED_EDGE('',*,*,#448,.F.);
#579=ORIENTED_EDGE('',*,*,#449,.F.);
#580=ORIENTED_EDGE('',*,*,#450,.F.);
#581=ORIENTED_EDGE('',*,*,#451,.T.);
#582=ORIENTED_EDGE('',*,*,#449,.T.);
#583=ORIENTED_EDGE('',*,*,#452,.T.);
#584=ORIENTED_EDGE('',*,*,#453,.T.);
#585=ORIENTED_EDGE('',*,*,#454,.T.);
#586=ORIENTED_EDGE('',*,*,#455,.T.);
#587=ORIENTED_EDGE('',*,*,#456,.T.);
#588=ORIENTED_EDGE('',*,*,#442,.T.);
#589=ORIENTED_EDGE('',*,*,#453,.F.);
#590=ORIENTED_EDGE('',*,*,#457,.F.);
#591=ORIENTED_EDGE('',*,*,#455,.F.);
#592=ORIENTED_EDGE('',*,*,#458,.F.);
#593=ORIENTED_EDGE('',*,*,#459,.T.);
#594=ORIENTED_EDGE('',*,*,#460,.T.);
#595=ORIENTED_EDGE('',*,*,#461,.T.);
#596=ORIENTED_EDGE('',*,*,#462,.T.);
#597=ORIENTED_EDGE('',*,*,#463,.T.);
#598=ORIENTED_EDGE('',*,*,#464,.F.);
#599=ORIENTED_EDGE('',*,*,#461,.F.);
#600=ORIENTED_EDGE('',*,*,#465,.T.);
#601=ORIENTED_EDGE('',*,*,#463,.F.);
#602=ORIENTED_EDGE('',*,*,#466,.T.);
#603=ORIENTED_EDGE('',*,*,#467,.T.);
#604=ORIENTED_EDGE('',*,*,#468,.T.);
#605=ORIENTED_EDGE('',*,*,#469,.T.);
#606=ORIENTED_EDGE('',*,*,#470,.F.);
#607=ORIENTED_EDGE('',*,*,#467,.F.);
#608=ORIENTED_EDGE('',*,*,#471,.T.);
#609=ORIENTED_EDGE('',*,*,#469,.F.);
#610=ORIENTED_EDGE('',*,*,#472,.T.);
#611=ORIENTED_EDGE('',*,*,#473,.T.);
#612=ORIENTED_EDGE('',*,*,#474,.T.);
#613=ORIENTED_EDGE('',*,*,#475,.T.);
#614=ORIENTED_EDGE('',*,*,#476,.F.);
#615=ORIENTED_EDGE('',*,*,#473,.F.);
#616=ORIENTED_EDGE('',*,*,#477,.T.);
#617=ORIENTED_EDGE('',*,*,#475,.F.);
#618=ORIENTED_EDGE('',*,*,#478,.T.);
#619=ORIENTED_EDGE('',*,*,#479,.T.);
#620=ORIENTED_EDGE('',*,*,#480,.T.);
#621=ORIENTED_EDGE('',*,*,#459,.F.);
#622=ORIENTED_EDGE('',*,*,#481,.F.);
#623=ORIENTED_EDGE('',*,*,#479,.F.);
#624=ORIENTED_EDGE('',*,*,#482,.T.);
#625=ORIENTED_EDGE('',*,*,#460,.F.);
#626=ORIENTED_EDGE('',*,*,#482,.F.);
#627=ORIENTED_EDGE('',*,*,#478,.F.);
#628=ORIENTED_EDGE('',*,*,#477,.F.);
#629=ORIENTED_EDGE('',*,*,#472,.F.);
#630=ORIENTED_EDGE('',*,*,#471,.F.);
#631=ORIENTED_EDGE('',*,*,#466,.F.);
#632=ORIENTED_EDGE('',*,*,#465,.F.);
#633=ORIENTED_EDGE('',*,*,#436,.T.);
#634=ORIENTED_EDGE('',*,*,#432,.F.);
#635=ORIENTED_EDGE('',*,*,#407,.T.);
#636=ORIENTED_EDGE('',*,*,#403,.F.);
#637=ORIENTED_EDGE('',*,*,#414,.T.);
#638=ORIENTED_EDGE('',*,*,#410,.F.);
#639=ORIENTED_EDGE('',*,*,#400,.T.);
#640=ORIENTED_EDGE('',*,*,#396,.F.);
#641=ORIENTED_EDGE('',*,*,#431,.T.);
#642=ORIENTED_EDGE('',*,*,#427,.F.);
#643=ORIENTED_EDGE('',*,*,#424,.T.);
#644=ORIENTED_EDGE('',*,*,#421,.F.);
#645=ORIENTED_EDGE('',*,*,#418,.T.);
#646=ORIENTED_EDGE('',*,*,#415,.F.);
#647=ORIENTED_EDGE('',*,*,#393,.T.);
#648=ORIENTED_EDGE('',*,*,#389,.F.);
#649=ORIENTED_EDGE('',*,*,#483,.T.);
#650=ORIENTED_EDGE('',*,*,#439,.F.);
#651=ORIENTED_EDGE('',*,*,#443,.T.);
#652=ORIENTED_EDGE('',*,*,#456,.F.);
#653=ORIENTED_EDGE('',*,*,#457,.T.);
#654=ORIENTED_EDGE('',*,*,#452,.F.);
#655=ORIENTED_EDGE('',*,*,#448,.T.);
#656=ORIENTED_EDGE('',*,*,#444,.F.);
#657=ORIENTED_EDGE('',*,*,#386,.T.);
#658=ORIENTED_EDGE('',*,*,#383,.T.);
#659=ORIENTED_EDGE('',*,*,#380,.T.);
#660=ORIENTED_EDGE('',*,*,#377,.T.);
#661=ORIENTED_EDGE('',*,*,#480,.F.);
#662=ORIENTED_EDGE('',*,*,#481,.T.);
#663=ORIENTED_EDGE('',*,*,#462,.F.);
#664=ORIENTED_EDGE('',*,*,#464,.T.);
#665=ORIENTED_EDGE('',*,*,#468,.F.);
#666=ORIENTED_EDGE('',*,*,#470,.T.);
#667=ORIENTED_EDGE('',*,*,#474,.F.);
#668=ORIENTED_EDGE('',*,*,#476,.T.);
#669=ORIENTED_EDGE('',*,*,#484,.T.);
#670=ORIENTED_EDGE('',*,*,#446,.F.);
#671=ORIENTED_EDGE('',*,*,#450,.T.);
#672=ORIENTED_EDGE('',*,*,#451,.F.);
#673=ORIENTED_EDGE('',*,*,#458,.T.);
#674=ORIENTED_EDGE('',*,*,#454,.F.);
#675=ORIENTED_EDGE('',*,*,#441,.T.);
#676=ORIENTED_EDGE('',*,*,#437,.F.);
#677=ORIENTED_EDGE('',*,*,#430,.T.);
#678=ORIENTED_EDGE('',*,*,#391,.F.);
#679=ORIENTED_EDGE('',*,*,#395,.T.);
#680=ORIENTED_EDGE('',*,*,#417,.F.);
#681=ORIENTED_EDGE('',*,*,#420,.T.);
#682=ORIENTED_EDGE('',*,*,#423,.F.);
#683=ORIENTED_EDGE('',*,*,#426,.T.);
#684=ORIENTED_EDGE('',*,*,#429,.F.);
#685=ORIENTED_EDGE('',*,*,#435,.T.);
#686=ORIENTED_EDGE('',*,*,#398,.F.);
#687=ORIENTED_EDGE('',*,*,#402,.T.);
#688=ORIENTED_EDGE('',*,*,#412,.F.);
#689=ORIENTED_EDGE('',*,*,#413,.T.);
#690=ORIENTED_EDGE('',*,*,#405,.F.);
#691=ORIENTED_EDGE('',*,*,#409,.T.);
#692=ORIENTED_EDGE('',*,*,#434,.F.);
#693=ORIENTED_EDGE('',*,*,#388,.T.);
#694=ORIENTED_EDGE('',*,*,#385,.T.);
#695=ORIENTED_EDGE('',*,*,#382,.T.);
#696=ORIENTED_EDGE('',*,*,#379,.T.);
#697=ORIENTED_EDGE('',*,*,#440,.F.);
#698=ORIENTED_EDGE('',*,*,#483,.F.);
#699=ORIENTED_EDGE('',*,*,#447,.F.);
#700=ORIENTED_EDGE('',*,*,#484,.F.);
#701=CYLINDRICAL_SURFACE('',#773,1.6);
#702=CYLINDRICAL_SURFACE('',#776,1.6);
#703=CYLINDRICAL_SURFACE('',#779,1.6);
#704=CYLINDRICAL_SURFACE('',#782,1.6);
#705=CYLINDRICAL_SURFACE('',#785,1.);
#706=CYLINDRICAL_SURFACE('',#789,1.);
#707=CYLINDRICAL_SURFACE('',#793,1.);
#708=CYLINDRICAL_SURFACE('',#797,1.);
#709=CYLINDRICAL_SURFACE('',#801,1.);
#710=CYLINDRICAL_SURFACE('',#805,1.);
#711=CYLINDRICAL_SURFACE('',#809,1.);
#712=CYLINDRICAL_SURFACE('',#813,1.);
#713=CYLINDRICAL_SURFACE('',#817,1.);
#714=CYLINDRICAL_SURFACE('',#821,1.);
#715=CYLINDRICAL_SURFACE('',#825,1.);
#716=CYLINDRICAL_SURFACE('',#828,1.);
#717=CYLINDRICAL_SURFACE('',#836,2.);
#718=CYLINDRICAL_SURFACE('',#841,2.);
#719=CYLINDRICAL_SURFACE('',#846,2.);
#720=CYLINDRICAL_SURFACE('',#851,2.);
#721=ADVANCED_FACE('',(#47),#701,.F.);
#722=ADVANCED_FACE('',(#48),#702,.F.);
#723=ADVANCED_FACE('',(#49),#703,.F.);
#724=ADVANCED_FACE('',(#50),#704,.F.);
#725=ADVANCED_FACE('',(#51),#705,.F.);
#726=ADVANCED_FACE('',(#52),#33,.F.);
#727=ADVANCED_FACE('',(#53),#706,.F.);
#728=ADVANCED_FACE('',(#54),#34,.F.);
#729=ADVANCED_FACE('',(#55),#707,.F.);
#730=ADVANCED_FACE('',(#56),#35,.F.);
#731=ADVANCED_FACE('',(#57),#708,.F.);
#732=ADVANCED_FACE('',(#58),#36,.F.);
#733=ADVANCED_FACE('',(#59),#709,.F.);
#734=ADVANCED_FACE('',(#60),#37,.F.);
#735=ADVANCED_FACE('',(#61),#710,.F.);
#736=ADVANCED_FACE('',(#62),#38,.F.);
#737=ADVANCED_FACE('',(#63),#711,.F.);
#738=ADVANCED_FACE('',(#64),#39,.F.);
#739=ADVANCED_FACE('',(#65),#712,.F.);
#740=ADVANCED_FACE('',(#66),#40,.F.);
#741=ADVANCED_FACE('',(#67),#713,.F.);
#742=ADVANCED_FACE('',(#68),#41,.F.);
#743=ADVANCED_FACE('',(#69),#714,.F.);
#744=ADVANCED_FACE('',(#70),#42,.F.);
#745=ADVANCED_FACE('',(#71),#715,.F.);
#746=ADVANCED_FACE('',(#72),#716,.F.);
#747=ADVANCED_FACE('',(#73),#43,.F.);
#748=ADVANCED_FACE('',(#74),#29,.F.);
#749=ADVANCED_FACE('',(#75),#717,.T.);
#750=ADVANCED_FACE('',(#76),#30,.F.);
#751=ADVANCED_FACE('',(#77),#718,.T.);
#752=ADVANCED_FACE('',(#78),#31,.F.);
#753=ADVANCED_FACE('',(#79),#719,.T.);
#754=ADVANCED_FACE('',(#80),#32,.F.);
#755=ADVANCED_FACE('',(#81),#720,.T.);
#756=ADVANCED_FACE('',(#82,#15,#16,#17,#18,#19,#20,#21),#44,.T.);
#757=ADVANCED_FACE('',(#83,#22,#23,#24,#25,#26,#27,#28),#45,.F.);
#758=ADVANCED_FACE('',(#84),#46,.F.);
#759=CLOSED_SHELL('',(#721,#722,#723,#724,#725,#726,#727,#728,#729,#730,
#731,#732,#733,#734,#735,#736,#737,#738,#739,#740,#741,#742,#743,#744,#745,
#746,#747,#748,#749,#750,#751,#752,#753,#754,#755,#756,#757,#758));
#760=DERIVED_UNIT_ELEMENT(#762,1.);
#761=DERIVED_UNIT_ELEMENT(#1337,-3.);
#762=(
MASS_UNIT()
NAMED_UNIT(*)
SI_UNIT(.KILO.,.GRAM.)
);
#763=DERIVED_UNIT((#760,#761));
#764=MEASURE_REPRESENTATION_ITEM('density measure',
POSITIVE_RATIO_MEASURE(7850.),#763);
#765=PROPERTY_DEFINITION_REPRESENTATION(#770,#767);
#766=PROPERTY_DEFINITION_REPRESENTATION(#771,#768);
#767=REPRESENTATION('material name',(#769),#1334);
#768=REPRESENTATION('density',(#764),#1334);
#769=DESCRIPTIVE_REPRESENTATION_ITEM('Steel','Steel');
#770=PROPERTY_DEFINITION('material property','material name',#1344);
#771=PROPERTY_DEFINITION('material property','density of part',#1344);
#772=AXIS2_PLACEMENT_3D('',#1081,#855,#856);
#773=AXIS2_PLACEMENT_3D('',#1082,#857,#858);
#774=AXIS2_PLACEMENT_3D('',#1084,#859,#860);
#775=AXIS2_PLACEMENT_3D('',#1087,#862,#863);
#776=AXIS2_PLACEMENT_3D('',#1088,#864,#865);
#777=AXIS2_PLACEMENT_3D('',#1090,#866,#867);
#778=AXIS2_PLACEMENT_3D('',#1093,#869,#870);
#779=AXIS2_PLACEMENT_3D('',#1094,#871,#872);
#780=AXIS2_PLACEMENT_3D('',#1096,#873,#874);
#781=AXIS2_PLACEMENT_3D('',#1099,#876,#877);
#782=AXIS2_PLACEMENT_3D('',#1100,#878,#879);
#783=AXIS2_PLACEMENT_3D('',#1102,#880,#881);
#784=AXIS2_PLACEMENT_3D('',#1105,#883,#884);
#785=AXIS2_PLACEMENT_3D('',#1106,#885,#886);
#786=AXIS2_PLACEMENT_3D('',#1109,#887,#888);
#787=AXIS2_PLACEMENT_3D('',#1113,#890,#891);
#788=AXIS2_PLACEMENT_3D('',#1115,#893,#894);
#789=AXIS2_PLACEMENT_3D('',#1121,#898,#899);
#790=AXIS2_PLACEMENT_3D('',#1124,#900,#901);
#791=AXIS2_PLACEMENT_3D('',#1128,#903,#904);
#792=AXIS2_PLACEMENT_3D('',#1130,#906,#907);
#793=AXIS2_PLACEMENT_3D('',#1136,#911,#912);
#794=AXIS2_PLACEMENT_3D('',#1139,#913,#914);
#795=AXIS2_PLACEMENT_3D('',#1143,#916,#917);
#796=AXIS2_PLACEMENT_3D('',#1145,#919,#920);
#797=AXIS2_PLACEMENT_3D('',#1151,#924,#925);
#798=AXIS2_PLACEMENT_3D('',#1153,#926,#927);
#799=AXIS2_PLACEMENT_3D('',#1156,#929,#930);
#800=AXIS2_PLACEMENT_3D('',#1157,#931,#932);
#801=AXIS2_PLACEMENT_3D('',#1160,#935,#936);
#802=AXIS2_PLACEMENT_3D('',#1162,#937,#938);
#803=AXIS2_PLACEMENT_3D('',#1165,#940,#941);
#804=AXIS2_PLACEMENT_3D('',#1166,#942,#943);
#805=AXIS2_PLACEMENT_3D('',#1172,#947,#948);
#806=AXIS2_PLACEMENT_3D('',#1174,#949,#950);
#807=AXIS2_PLACEMENT_3D('',#1177,#952,#953);
#808=AXIS2_PLACEMENT_3D('',#1178,#954,#955);
#809=AXIS2_PLACEMENT_3D('',#1184,#959,#960);
#810=AXIS2_PLACEMENT_3D('',#1186,#961,#962);
#811=AXIS2_PLACEMENT_3D('',#1189,#964,#965);
#812=AXIS2_PLACEMENT_3D('',#1190,#966,#967);
#813=AXIS2_PLACEMENT_3D('',#1193,#970,#971);
#814=AXIS2_PLACEMENT_3D('',#1195,#972,#973);
#815=AXIS2_PLACEMENT_3D('',#1198,#975,#976);
#816=AXIS2_PLACEMENT_3D('',#1199,#977,#978);
#817=AXIS2_PLACEMENT_3D('',#1202,#981,#982);
#818=AXIS2_PLACEMENT_3D('',#1205,#983,#984);
#819=AXIS2_PLACEMENT_3D('',#1209,#986,#987);
#820=AXIS2_PLACEMENT_3D('',#1211,#989,#990);
#821=AXIS2_PLACEMENT_3D('',#1217,#994,#995);
#822=AXIS2_PLACEMENT_3D('',#1220,#996,#997);
#823=AXIS2_PLACEMENT_3D('',#1224,#999,#1000);
#824=AXIS2_PLACEMENT_3D('',#1226,#1002,#1003);
#825=AXIS2_PLACEMENT_3D('',#1232,#1007,#1008);
#826=AXIS2_PLACEMENT_3D('',#1234,#1009,#1010);
#827=AXIS2_PLACEMENT_3D('',#1236,#1011,#1012);
#828=AXIS2_PLACEMENT_3D('',#1238,#1014,#1015);
#829=AXIS2_PLACEMENT_3D('',#1240,#1016,#1017);
#830=AXIS2_PLACEMENT_3D('',#1243,#1019,#1020);
#831=AXIS2_PLACEMENT_3D('',#1244,#1021,#1022);
#832=AXIS2_PLACEMENT_3D('',#1258,#1025,#1026);
#833=AXIS2_PLACEMENT_3D('',#1260,#1027,#1028);
#834=AXIS2_PLACEMENT_3D('',#1262,#1029,#1030);
#835=AXIS2_PLACEMENT_3D('',#1263,#1031,#1032);
#836=AXIS2_PLACEMENT_3D('',#1264,#1033,#1034);
#837=AXIS2_PLACEMENT_3D('',#1267,#1035,#1036);
#838=AXIS2_PLACEMENT_3D('',#1280,#1039,#1040);
#839=AXIS2_PLACEMENT_3D('',#1282,#1041,#1042);
#840=AXIS2_PLACEMENT_3D('',#1283,#1043,#1044);
#841=AXIS2_PLACEMENT_3D('',#1284,#1045,#1046);
#842=AXIS2_PLACEMENT_3D('',#1287,#1047,#1048);
#843=AXIS2_PLACEMENT_3D('',#1300,#1051,#1052);
#844=AXIS2_PLACEMENT_3D('',#1302,#1053,#1054);
#845=AXIS2_PLACEMENT_3D('',#1303,#1055,#1056);
#846=AXIS2_PLACEMENT_3D('',#1304,#1057,#1058);
#847=AXIS2_PLACEMENT_3D('',#1307,#1059,#1060);
#848=AXIS2_PLACEMENT_3D('',#1320,#1063,#1064);
#849=AXIS2_PLACEMENT_3D('',#1322,#1065,#1066);
#850=AXIS2_PLACEMENT_3D('',#1323,#1067,#1068);
#851=AXIS2_PLACEMENT_3D('',#1324,#1069,#1070);
#852=AXIS2_PLACEMENT_3D('',#1327,#1073,#1074);
#853=AXIS2_PLACEMENT_3D('',#1329,#1076,#1077);
#854=AXIS2_PLACEMENT_3D('',#1331,#1079,#1080);
#855=DIRECTION('axis',(0.,0.,1.));
#856=DIRECTION('refdir',(1.,0.,0.));
#857=DIRECTION('center_axis',(0.,-1.,0.));
#858=DIRECTION('ref_axis',(-1.,0.,0.));
#859=DIRECTION('center_axis',(0.,-1.,0.));
#860=DIRECTION('ref_axis',(-1.,0.,0.));
#861=DIRECTION('',(0.,-1.,0.));
#862=DIRECTION('center_axis',(0.,1.,0.));
#863=DIRECTION('ref_axis',(-1.,0.,0.));
#864=DIRECTION('center_axis',(0.,-1.,0.));
#865=DIRECTION('ref_axis',(-1.,0.,0.));
#866=DIRECTION('center_axis',(0.,-1.,0.));
#867=DIRECTION('ref_axis',(-1.,0.,0.));
#868=DIRECTION('',(0.,-1.,0.));
#869=DIRECTION('center_axis',(0.,1.,0.));
#870=DIRECTION('ref_axis',(-1.,0.,0.));
#871=DIRECTION('center_axis',(0.,-1.,0.));
#872=DIRECTION('ref_axis',(-1.,0.,0.));
#873=DIRECTION('center_axis',(0.,-1.,0.));
#874=DIRECTION('ref_axis',(-1.,0.,0.));
#875=DIRECTION('',(0.,-1.,0.));
#876=DIRECTION('center_axis',(0.,1.,0.));
#877=DIRECTION('ref_axis',(-1.,0.,0.));
#878=DIRECTION('center_axis',(0.,-1.,0.));
#879=DIRECTION('ref_axis',(-1.,0.,0.));
#880=DIRECTION('center_axis',(0.,-1.,0.));
#881=DIRECTION('ref_axis',(-1.,0.,0.));
#882=DIRECTION('',(0.,-1.,0.));
#883=DIRECTION('center_axis',(0.,1.,0.));
#884=DIRECTION('ref_axis',(-1.,0.,0.));
#885=DIRECTION('center_axis',(0.,-1.,0.));
#886=DIRECTION('ref_axis',(-0.707106781186547,0.,0.707106781186548));
#887=DIRECTION('center_axis',(0.,1.,0.));
#888=DIRECTION('ref_axis',(-0.707106781186547,0.,0.707106781186548));
#889=DIRECTION('',(0.,-1.,0.));
#890=DIRECTION('center_axis',(0.,-1.,0.));
#891=DIRECTION('ref_axis',(-0.707106781186547,0.,0.707106781186548));
#892=DIRECTION('',(0.,1.,0.));
#893=DIRECTION('center_axis',(0.,0.,1.));
#894=DIRECTION('ref_axis',(-1.,0.,0.));
#895=DIRECTION('',(-1.,0.,0.));
#896=DIRECTION('',(0.,1.,0.));
#897=DIRECTION('',(1.,0.,0.));
#898=DIRECTION('center_axis',(0.,-1.,0.));
#899=DIRECTION('ref_axis',(-0.707106781186547,0.,0.707106781186548));
#900=DIRECTION('center_axis',(0.,1.,0.));
#901=DIRECTION('ref_axis',(-0.707106781186547,0.,0.707106781186548));
#902=DIRECTION('',(0.,-1.,0.));
#903=DIRECTION('center_axis',(0.,-1.,0.));
#904=DIRECTION('ref_axis',(-0.707106781186547,0.,0.707106781186548));
#905=DIRECTION('',(0.,1.,0.));
#906=DIRECTION('center_axis',(0.,0.,1.));
#907=DIRECTION('ref_axis',(-1.,0.,0.));
#908=DIRECTION('',(-1.,0.,0.));
#909=DIRECTION('',(0.,1.,0.));
#910=DIRECTION('',(1.,0.,0.));
#911=DIRECTION('center_axis',(0.,-1.,0.));
#912=DIRECTION('ref_axis',(0.707106781186548,0.,-0.707106781186548));
#913=DIRECTION('center_axis',(0.,1.,0.));
#914=DIRECTION('ref_axis',(0.707106781186548,0.,-0.707106781186548));
#915=DIRECTION('',(0.,-1.,0.));
#916=DIRECTION('center_axis',(0.,-1.,0.));
#917=DIRECTION('ref_axis',(0.707106781186548,0.,-0.707106781186548));
#918=DIRECTION('',(0.,1.,0.));
#919=DIRECTION('center_axis',(0.,0.,-1.));
#920=DIRECTION('ref_axis',(1.,0.,0.));
#921=DIRECTION('',(1.,0.,0.));
#922=DIRECTION('',(0.,1.,0.));
#923=DIRECTION('',(-1.,0.,0.));
#924=DIRECTION('center_axis',(0.,-1.,0.));
#925=DIRECTION('ref_axis',(0.707106781186547,0.,0.707106781186548));
#926=DIRECTION('center_axis',(0.,1.,0.));
#927=DIRECTION('ref_axis',(0.707106781186547,0.,0.707106781186548));
#928=DIRECTION('',(0.,-1.,0.));
#929=DIRECTION('center_axis',(0.,-1.,0.));
#930=DIRECTION('ref_axis',(0.707106781186547,0.,0.707106781186548));
#931=DIRECTION('center_axis',(1.,0.,0.));
#932=DIRECTION('ref_axis',(0.,0.,1.));
#933=DIRECTION('',(0.,0.,-1.));
#934=DIRECTION('',(0.,0.,1.));
#935=DIRECTION('center_axis',(0.,-1.,0.));
#936=DIRECTION('ref_axis',(0.707106781186547,0.,0.707106781186548));
#937=DIRECTION('center_axis',(0.,1.,0.));
#938=DIRECTION('ref_axis',(0.707106781186547,0.,0.707106781186548));
#939=DIRECTION('',(0.,-1.,0.));
#940=DIRECTION('center_axis',(0.,-1.,0.));
#941=DIRECTION('ref_axis',(0.707106781186547,0.,0.707106781186548));
#942=DIRECTION('center_axis',(1.,0.,0.));
#943=DIRECTION('ref_axis',(0.,0.,1.));
#944=DIRECTION('',(0.,0.,1.));
#945=DIRECTION('',(0.,1.,0.));
#946=DIRECTION('',(0.,0.,-1.));
#947=DIRECTION('center_axis',(0.,-1.,0.));
#948=DIRECTION('ref_axis',(0.707106781186548,0.,-0.707106781186547));
#949=DIRECTION('center_axis',(0.,1.,0.));
#950=DIRECTION('ref_axis',(0.707106781186548,0.,-0.707106781186547));
#951=DIRECTION('',(0.,-1.,0.));
#952=DIRECTION('center_axis',(0.,-1.,0.));
#953=DIRECTION('ref_axis',(0.707106781186548,0.,-0.707106781186547));
#954=DIRECTION('center_axis',(0.,0.,-1.));
#955=DIRECTION('ref_axis',(1.,0.,0.));
#956=DIRECTION('',(1.,0.,0.));
#957=DIRECTION('',(0.,1.,0.));
#958=DIRECTION('',(-1.,0.,0.));
#959=DIRECTION('center_axis',(0.,-1.,0.));
#960=DIRECTION('ref_axis',(-0.707106781186547,0.,-0.707106781186548));
#961=DIRECTION('center_axis',(0.,1.,0.));
#962=DIRECTION('ref_axis',(-0.707106781186547,0.,-0.707106781186548));
#963=DIRECTION('',(0.,-1.,0.));
#964=DIRECTION('center_axis',(0.,-1.,0.));
#965=DIRECTION('ref_axis',(-0.707106781186547,0.,-0.707106781186548));
#966=DIRECTION('center_axis',(-1.,0.,0.));
#967=DIRECTION('ref_axis',(0.,0.,-1.));
#968=DIRECTION('',(0.,0.,1.));
#969=DIRECTION('',(0.,0.,-1.));
#970=DIRECTION('center_axis',(0.,-1.,0.));
#971=DIRECTION('ref_axis',(-0.707106781186547,0.,-0.707106781186548));
#972=DIRECTION('center_axis',(0.,1.,0.));
#973=DIRECTION('ref_axis',(-0.707106781186547,0.,-0.707106781186548));
#974=DIRECTION('',(0.,-1.,0.));
#975=DIRECTION('center_axis',(0.,-1.,0.));
#976=DIRECTION('ref_axis',(-0.707106781186547,0.,-0.707106781186548));
#977=DIRECTION('center_axis',(-1.,0.,0.));
#978=DIRECTION('ref_axis',(0.,0.,-1.));
#979=DIRECTION('',(0.,0.,1.));
#980=DIRECTION('',(0.,0.,-1.));
#981=DIRECTION('center_axis',(3.70074341541719E-15,1.,0.));
#982=DIRECTION('ref_axis',(-0.707106781186554,3.14018491736755E-15,-0.707106781186541));
#983=DIRECTION('center_axis',(0.,-1.,0.));
#984=DIRECTION('ref_axis',(-0.707106781186554,3.14018491736755E-15,-0.707106781186541));
#985=DIRECTION('',(3.70074341541719E-15,1.,0.));
#986=DIRECTION('center_axis',(0.,1.,0.));
#987=DIRECTION('ref_axis',(-0.707106781186554,3.14018491736755E-15,-0.707106781186541));
#988=DIRECTION('',(-3.70074341541719E-15,-1.,0.));
#989=DIRECTION('center_axis',(-6.76965258917779E-15,2.50527472440616E-29,
-1.));
#990=DIRECTION('ref_axis',(-1.,3.65561239815601E-15,6.76965258917779E-15));
#991=DIRECTION('',(-1.,0.,6.76965258917779E-15));
#992=DIRECTION('',(-3.70074341541719E-15,-1.,0.));
#993=DIRECTION('',(1.,0.,-6.76965258917779E-15));
#994=DIRECTION('center_axis',(-3.70074341541719E-15,-1.,0.));
#995=DIRECTION('ref_axis',(-0.707106781186543,3.14018491736755E-15,0.707106781186552));
#996=DIRECTION('center_axis',(0.,1.,0.));
#997=DIRECTION('ref_axis',(-0.707106781186543,3.14018491736755E-15,0.707106781186552));
#998=DIRECTION('',(-3.70074341541719E-15,-1.,0.));
#999=DIRECTION('center_axis',(0.,-1.,0.));
#1000=DIRECTION('ref_axis',(-0.707106781186543,3.14018491736755E-15,0.707106781186552));
#1001=DIRECTION('',(3.70074341541719E-15,1.,0.));
#1002=DIRECTION('center_axis',(6.85991462370016E-15,-2.53867838739824E-29,
1.));
#1003=DIRECTION('ref_axis',(1.,-3.65561239815601E-15,-6.85991462370016E-15));
#1004=DIRECTION('',(-1.,0.,6.85991462370016E-15));
#1005=DIRECTION('',(3.70074341541719E-15,1.,0.));
#1006=DIRECTION('',(1.,0.,-6.85991462370016E-15));
#1007=DIRECTION('center_axis',(3.70074341541719E-15,1.,0.));
#1008=DIRECTION('ref_axis',(0.707106781186554,-1.57009245868378E-15,0.707106781186541));
#1009=DIRECTION('center_axis',(0.,-1.,0.));
#1010=DIRECTION('ref_axis',(0.707106781186554,-1.57009245868378E-15,0.707106781186541));
#1011=DIRECTION('center_axis',(0.,1.,0.));
#1012=DIRECTION('ref_axis',(0.707106781186554,-1.57009245868378E-15,0.707106781186541));
#1013=DIRECTION('',(-3.70074341541719E-15,-1.,0.));
#1014=DIRECTION('center_axis',(3.70074341541719E-15,1.,0.));
#1015=DIRECTION('ref_axis',(0.707106781186544,-3.14018491736755E-15,-0.707106781186551));
#1016=DIRECTION('center_axis',(0.,-1.,0.));
#1017=DIRECTION('ref_axis',(0.707106781186544,-3.14018491736755E-15,-0.707106781186551));
#1018=DIRECTION('',(3.70074341541719E-15,1.,0.));
#1019=DIRECTION('center_axis',(0.,1.,0.));
#1020=DIRECTION('ref_axis',(0.707106781186544,-3.14018491736755E-15,-0.707106781186551));
#1021=DIRECTION('center_axis',(1.,-3.70074341541719E-15,-7.17374877450101E-15));
#1022=DIRECTION('ref_axis',(-7.17374877450101E-15,3.74700270811017E-16,
-1.));
#1023=DIRECTION('',(7.17374877450101E-15,0.,1.));
#1024=DIRECTION('',(-7.17374877450101E-15,0.,-1.));
#1025=DIRECTION('center_axis',(0.,0.,1.));
#1026=DIRECTION('ref_axis',(1.,0.,0.));
#1027=DIRECTION('center_axis',(0.,-1.,0.));
#1028=DIRECTION('ref_axis',(0.707106781186548,0.,0.707106781186547));
#1029=DIRECTION('center_axis',(1.,0.,0.));
#1030=DIRECTION('ref_axis',(0.,1.,0.));
#1031=DIRECTION('center_axis',(0.,1.,0.));
#1032=DIRECTION('ref_axis',(0.707106781186549,0.,0.707106781186546));
#1033=DIRECTION('center_axis',(1.,0.,-9.25185853854297E-17));
#1034=DIRECTION('ref_axis',(0.,0.707106781186547,0.707106781186548));
#1035=DIRECTION('center_axis',(1.,0.,0.));
#1036=DIRECTION('ref_axis',(0.,1.,0.));
#1037=DIRECTION('',(-1.,0.,9.25185853854297E-17));
#1038=DIRECTION('',(-1.,0.,9.25185853854297E-17));
#1039=DIRECTION('center_axis',(0.,-1.,0.));
#1040=DIRECTION('ref_axis',(-0.707106781186548,0.,0.707106781186548));
#1041=DIRECTION('center_axis',(0.,0.,1.));
#1042=DIRECTION('ref_axis',(0.,1.,0.));
#1043=DIRECTION('center_axis',(0.,1.,0.));
#1044=DIRECTION('ref_axis',(-0.707106781186548,0.,0.707106781186547));
#1045=DIRECTION('center_axis',(0.,0.,1.));
#1046=DIRECTION('ref_axis',(-0.707106781186548,0.707106781186548,0.));
#1047=DIRECTION('center_axis',(0.,0.,1.));
#1048=DIRECTION('ref_axis',(0.,1.,0.));
#1049=DIRECTION('',(0.,0.,-1.));
#1050=DIRECTION('',(0.,0.,-1.));
#1051=DIRECTION('center_axis',(0.,-1.,0.));
#1052=DIRECTION('ref_axis',(-0.707106781186548,0.,-0.707106781186548));
#1053=DIRECTION('center_axis',(-1.,0.,0.));
#1054=DIRECTION('ref_axis',(0.,1.,0.));
#1055=DIRECTION('center_axis',(0.,1.,0.));
#1056=DIRECTION('ref_axis',(-0.707106781186548,0.,-0.707106781186547));
#1057=DIRECTION('center_axis',(-1.,0.,5.78241158658936E-17));
#1058=DIRECTION('ref_axis',(0.,0.707106781186547,-0.707106781186548));
#1059=DIRECTION('center_axis',(-1.,0.,0.));
#1060=DIRECTION('ref_axis',(0.,1.,0.));
#1061=DIRECTION('',(1.,0.,-5.78241158658936E-17));
#1062=DIRECTION('',(1.,0.,-5.78241158658936E-17));
#1063=DIRECTION('center_axis',(0.,-1.,0.));
#1064=DIRECTION('ref_axis',(0.707106781186548,0.,-0.707106781186547));
#1065=DIRECTION('center_axis',(8.32667268468867E-16,0.,-1.));
#1066=DIRECTION('ref_axis',(0.,1.,0.));
#1067=DIRECTION('center_axis',(0.,1.,0.));
#1068=DIRECTION('ref_axis',(0.707106781186548,0.,-0.707106781186547));
#1069=DIRECTION('center_axis',(0.,0.,-1.));
#1070=DIRECTION('ref_axis',(0.707106781186546,0.707106781186549,0.));
#1071=DIRECTION('',(0.,0.,1.));
#1072=DIRECTION('',(0.,0.,1.));
#1073=DIRECTION('center_axis',(0.,1.,0.));
#1074=DIRECTION('ref_axis',(0.,0.,1.));
#1075=DIRECTION('',(-7.17374877450101E-15,0.,-1.));
#1076=DIRECTION('center_axis',(0.,1.,0.));
#1077=DIRECTION('ref_axis',(0.,0.,1.));
#1078=DIRECTION('',(7.17374877450101E-15,0.,1.));
#1079=DIRECTION('center_axis',(-1.,3.70074341541719E-15,7.17374877450101E-15));
#1080=DIRECTION('ref_axis',(7.17374877450101E-15,-3.74700270811017E-16,
1.));
#1081=CARTESIAN_POINT('',(0.,0.,0.));
#1082=CARTESIAN_POINT('Origin',(3.,10.5,34.2));
#1083=CARTESIAN_POINT('',(4.6,10.5,34.2));
#1084=CARTESIAN_POINT('Origin',(3.,10.5,34.2));
#1085=CARTESIAN_POINT('',(4.6,8.5,34.2));
#1086=CARTESIAN_POINT('',(4.6,10.5,34.2));
#1087=CARTESIAN_POINT('Origin',(3.,8.5,34.2));
#1088=CARTESIAN_POINT('Origin',(41.,10.5,34.2));
#1089=CARTESIAN_POINT('',(42.6,10.5,34.2));
#1090=CARTESIAN_POINT('Origin',(41.,10.5,34.2));
#1091=CARTESIAN_POINT('',(42.6,8.5,34.2));
#1092=CARTESIAN_POINT('',(42.6,10.5,34.2));
#1093=CARTESIAN_POINT('Origin',(41.,8.5,34.2));
#1094=CARTESIAN_POINT('Origin',(3.,10.5,3.));
#1095=CARTESIAN_POINT('',(4.6,10.5,3.));
#1096=CARTESIAN_POINT('Origin',(3.,10.5,3.));
#1097=CARTESIAN_POINT('',(4.6,8.5,3.));
#1098=CARTESIAN_POINT('',(4.6,10.5,3.));
#1099=CARTESIAN_POINT('Origin',(3.,8.5,3.));
#1100=CARTESIAN_POINT('Origin',(41.,10.5,3.));
#1101=CARTESIAN_POINT('',(42.6,10.5,3.));
#1102=CARTESIAN_POINT('Origin',(41.,10.5,3.));
#1103=CARTESIAN_POINT('',(42.6,8.5,3.));
#1104=CARTESIAN_POINT('',(42.6,10.5,3.));
#1105=CARTESIAN_POINT('Origin',(41.,8.5,3.));
#1106=CARTESIAN_POINT('Origin',(4.544999,10.5,10.2000000000001));
#1107=CARTESIAN_POINT('',(3.544999,10.5,10.2000000000001));
#1108=CARTESIAN_POINT('',(4.54499900000001,10.5,11.2000000000001));
#1109=CARTESIAN_POINT('Origin',(4.544999,10.5,10.2000000000001));
#1110=CARTESIAN_POINT('',(4.54499900000001,8.5,11.2000000000001));
#1111=CARTESIAN_POINT('',(4.544999,10.5,11.2000000000001));
#1112=CARTESIAN_POINT('',(3.544999,8.5,10.2000000000001));
#1113=CARTESIAN_POINT('Origin',(4.544999,8.5,10.2000000000001));
#1114=CARTESIAN_POINT('',(3.544999,10.5,10.2000000000001));
#1115=CARTESIAN_POINT('Origin',(8.544999,10.5,11.2000000000001));
#1116=CARTESIAN_POINT('',(7.544999,10.5,11.2000000000001));
#1117=CARTESIAN_POINT('',(15.2724995,10.5,11.2000000000001));
#1118=CARTESIAN_POINT('',(7.544999,8.5,11.2000000000001));
#1119=CARTESIAN_POINT('',(7.544999,10.5,11.2000000000001));
#1120=CARTESIAN_POINT('',(15.2724995,8.5,11.2000000000001));
#1121=CARTESIAN_POINT('Origin',(4.544999,10.5,15.0000000000001));
#1122=CARTESIAN_POINT('',(3.544999,10.5,15.0000000000001));
#1123=CARTESIAN_POINT('',(4.54499900000001,10.5,16.0000000000001));
#1124=CARTESIAN_POINT('Origin',(4.544999,10.5,15.0000000000001));
#1125=CARTESIAN_POINT('',(4.54499900000001,8.5,16.0000000000001));
#1126=CARTESIAN_POINT('',(4.544999,10.5,16.0000000000001));
#1127=CARTESIAN_POINT('',(3.544999,8.5,15.0000000000001));
#1128=CARTESIAN_POINT('Origin',(4.544999,8.5,15.0000000000001));
#1129=CARTESIAN_POINT('',(3.544999,10.5,15.0000000000001));
#1130=CARTESIAN_POINT('Origin',(8.544999,10.5,16.0000000000001));
#1131=CARTESIAN_POINT('',(7.544999,10.5,16.0000000000001));
#1132=CARTESIAN_POINT('',(15.2724995,10.5,16.0000000000001));
#1133=CARTESIAN_POINT('',(7.544999,8.5,16.0000000000001));
#1134=CARTESIAN_POINT('',(7.544999,10.5,16.0000000000001));
#1135=CARTESIAN_POINT('',(15.2724995,8.5,16.0000000000001));
#1136=CARTESIAN_POINT('Origin',(7.544999,10.5,13.0000000000001));
#1137=CARTESIAN_POINT('',(8.544999,10.5,13.0000000000001));
#1138=CARTESIAN_POINT('',(7.544999,10.5,12.));
#1139=CARTESIAN_POINT('Origin',(7.544999,10.5,13.0000000000001));
#1140=CARTESIAN_POINT('',(7.544999,8.5,12.));
#1141=CARTESIAN_POINT('',(7.544999,10.5,12.));
#1142=CARTESIAN_POINT('',(8.544999,8.5,13.0000000000001));
#1143=CARTESIAN_POINT('Origin',(7.544999,8.5,13.0000000000001));
#1144=CARTESIAN_POINT('',(8.544999,10.5,13.0000000000001));
#1145=CARTESIAN_POINT('Origin',(3.544999,10.5,12.));
#1146=CARTESIAN_POINT('',(4.544999,10.5,12.));
#1147=CARTESIAN_POINT('',(12.7724995,10.5,12.));
#1148=CARTESIAN_POINT('',(4.544999,8.5,12.));
#1149=CARTESIAN_POINT('',(4.544999,10.5,12.));
#1150=CARTESIAN_POINT('',(12.7724995,8.5,12.));
#1151=CARTESIAN_POINT('Origin',(7.544999,10.5,15.0000000000001));
#1152=CARTESIAN_POINT('',(8.544999,10.5,15.0000000000001));
#1153=CARTESIAN_POINT('Origin',(7.544999,10.5,15.0000000000001));
#1154=CARTESIAN_POINT('',(8.544999,8.5,15.0000000000001));
#1155=CARTESIAN_POINT('',(8.544999,10.5,15.0000000000001));
#1156=CARTESIAN_POINT('Origin',(7.544999,8.5,15.0000000000001));
#1157=CARTESIAN_POINT('Origin',(8.544999,10.5,12.));
#1158=CARTESIAN_POINT('',(8.544999,8.5,15.3));
#1159=CARTESIAN_POINT('',(8.544999,10.5,15.3));
#1160=CARTESIAN_POINT('Origin',(7.544999,10.5,10.2000000000001));
#1161=CARTESIAN_POINT('',(8.544999,10.5,10.2000000000001));
#1162=CARTESIAN_POINT('Origin',(7.544999,10.5,10.2000000000001));
#1163=CARTESIAN_POINT('',(8.544999,8.5,10.2000000000001));
#1164=CARTESIAN_POINT('',(8.544999,10.5,10.2000000000001));
#1165=CARTESIAN_POINT('Origin',(7.544999,8.5,10.2000000000001));
#1166=CARTESIAN_POINT('Origin',(8.544999,10.5,7.20000000000006));
#1167=CARTESIAN_POINT('',(8.544999,10.5,8.20000000000005));
#1168=CARTESIAN_POINT('',(8.544999,10.5,12.9));
#1169=CARTESIAN_POINT('',(8.544999,8.5,8.20000000000005));
#1170=CARTESIAN_POINT('',(8.544999,10.5,8.20000000000005));
#1171=CARTESIAN_POINT('',(8.544999,8.5,12.9));
#1172=CARTESIAN_POINT('Origin',(7.544999,10.5,8.20000000000005));
#1173=CARTESIAN_POINT('',(7.544999,10.5,7.20000000000006));
#1174=CARTESIAN_POINT('Origin',(7.544999,10.5,8.20000000000005));
#1175=CARTESIAN_POINT('',(7.544999,8.5,7.20000000000006));
#1176=CARTESIAN_POINT('',(7.544999,10.5,7.20000000000006));
#1177=CARTESIAN_POINT('Origin',(7.544999,8.5,8.20000000000005));
#1178=CARTESIAN_POINT('Origin',(3.544999,10.5,7.20000000000006));
#1179=CARTESIAN_POINT('',(4.544999,10.5,7.20000000000006));
#1180=CARTESIAN_POINT('',(12.7724995,10.5,7.20000000000006));
#1181=CARTESIAN_POINT('',(4.544999,8.5,7.20000000000006));
#1182=CARTESIAN_POINT('',(4.544999,10.5,7.20000000000006));
#1183=CARTESIAN_POINT('',(12.7724995,8.5,7.20000000000006));
#1184=CARTESIAN_POINT('Origin',(4.544999,10.5,8.20000000000006));
#1185=CARTESIAN_POINT('',(3.544999,10.5,8.20000000000006));
#1186=CARTESIAN_POINT('Origin',(4.544999,10.5,8.20000000000006));
#1187=CARTESIAN_POINT('',(3.544999,8.5,8.20000000000006));
#1188=CARTESIAN_POINT('',(3.544999,10.5,8.20000000000006));
#1189=CARTESIAN_POINT('Origin',(4.544999,8.5,8.20000000000006));
#1190=CARTESIAN_POINT('Origin',(3.544999,10.5,11.2000000000001));
#1191=CARTESIAN_POINT('',(3.544999,8.5,14.9));
#1192=CARTESIAN_POINT('',(3.544999,10.5,14.9));
#1193=CARTESIAN_POINT('Origin',(4.544999,10.5,13.0000000000001));
#1194=CARTESIAN_POINT('',(3.544999,10.5,13.0000000000001));
#1195=CARTESIAN_POINT('Origin',(4.544999,10.5,13.0000000000001));
#1196=CARTESIAN_POINT('',(3.544999,8.5,13.0000000000001));
#1197=CARTESIAN_POINT('',(3.544999,10.5,13.0000000000001));
#1198=CARTESIAN_POINT('Origin',(4.544999,8.5,13.0000000000001));
#1199=CARTESIAN_POINT('Origin',(3.544999,10.5,16.0000000000001));
#1200=CARTESIAN_POINT('',(3.544999,8.5,17.3));
#1201=CARTESIAN_POINT('',(3.544999,10.5,17.3));
#1202=CARTESIAN_POINT('Origin',(11.6999999999998,8.50000000000004,13.4));
#1203=CARTESIAN_POINT('',(10.6999999999998,8.5,13.4));
#1204=CARTESIAN_POINT('',(11.6999999999998,8.5,12.4));
#1205=CARTESIAN_POINT('Origin',(11.6999999999998,8.50000000000004,13.4));
#1206=CARTESIAN_POINT('',(11.6999999999998,10.5,12.4));
#1207=CARTESIAN_POINT('',(11.6999999999998,8.50000000000004,12.4));
#1208=CARTESIAN_POINT('',(10.6999999999998,10.5,13.4));
#1209=CARTESIAN_POINT('Origin',(11.6999999999998,10.5,13.4));
#1210=CARTESIAN_POINT('',(10.6999999999998,8.50000000000005,13.4));
#1211=CARTESIAN_POINT('Origin',(35.2999999999998,8.49999999999996,12.3999999999998));
#1212=CARTESIAN_POINT('',(34.2999999999998,8.5,12.3999999999998));
#1213=CARTESIAN_POINT('',(28.6499999999999,8.5,12.3999999999999));
#1214=CARTESIAN_POINT('',(34.2999999999998,10.5,12.3999999999998));
#1215=CARTESIAN_POINT('',(34.2999999999998,8.49999999999996,12.3999999999998));
#1216=CARTESIAN_POINT('',(28.6499999999999,10.5,12.3999999999999));
#1217=CARTESIAN_POINT('Origin',(11.6999999999999,8.50000000000004,24.4));
#1218=CARTESIAN_POINT('',(10.6999999999999,10.5,24.4));
#1219=CARTESIAN_POINT('',(11.6999999999999,10.5,25.4));
#1220=CARTESIAN_POINT('Origin',(11.6999999999999,10.5,24.4));
#1221=CARTESIAN_POINT('',(11.6999999999999,8.5,25.4));
#1222=CARTESIAN_POINT('',(11.6999999999999,8.50000000000004,25.4));
#1223=CARTESIAN_POINT('',(10.6999999999999,8.5,24.4));
#1224=CARTESIAN_POINT('Origin',(11.6999999999999,8.50000000000004,24.4));
#1225=CARTESIAN_POINT('',(10.6999999999999,8.50000000000004,24.4));
#1226=CARTESIAN_POINT('Origin',(10.6999999999999,8.50000000000004,25.4));
#1227=CARTESIAN_POINT('',(34.2999999999999,10.5,25.3999999999998));
#1228=CARTESIAN_POINT('',(16.35,10.5,25.4));
#1229=CARTESIAN_POINT('',(34.2999999999999,8.5,25.3999999999998));
#1230=CARTESIAN_POINT('',(34.2999999999999,8.49999999999996,25.3999999999998));
#1231=CARTESIAN_POINT('',(16.35,8.5,25.4));
#1232=CARTESIAN_POINT('Origin',(34.2999999999999,8.49999999999996,24.3999999999998));
#1233=CARTESIAN_POINT('',(35.2999999999999,8.5,24.3999999999998));
#1234=CARTESIAN_POINT('Origin',(34.2999999999999,8.49999999999996,24.3999999999998));
#1235=CARTESIAN_POINT('',(35.2999999999999,10.5,24.3999999999998));
#1236=CARTESIAN_POINT('Origin',(34.2999999999999,10.5,24.3999999999998));
#1237=CARTESIAN_POINT('',(35.2999999999999,8.49999999999995,24.3999999999998));
#1238=CARTESIAN_POINT('Origin',(34.2999999999998,8.49999999999996,13.3999999999998));
#1239=CARTESIAN_POINT('',(35.2999999999998,8.5,13.3999999999998));
#1240=CARTESIAN_POINT('Origin',(34.2999999999998,8.49999999999996,13.3999999999998));
#1241=CARTESIAN_POINT('',(35.2999999999998,10.5,13.3999999999998));
#1242=CARTESIAN_POINT('',(35.2999999999998,8.49999999999996,13.3999999999998));
#1243=CARTESIAN_POINT('Origin',(34.2999999999998,10.5,13.3999999999998));
#1244=CARTESIAN_POINT('Origin',(35.2999999999999,8.49999999999995,25.3999999999998));
#1245=CARTESIAN_POINT('',(35.2999999999999,10.5,21.9999999999999));
#1246=CARTESIAN_POINT('',(35.2999999999999,8.5,21.9999999999999));
#1247=CARTESIAN_POINT('Ctrl Pts',(44.,10.5,36.2));
#1248=CARTESIAN_POINT('Ctrl Pts',(44.,10.5,37.2));
#1249=CARTESIAN_POINT('Ctrl Pts',(43.,10.5,37.2));
#1250=CARTESIAN_POINT('Ctrl Pts',(46.,10.5,36.2));
#1251=CARTESIAN_POINT('Ctrl Pts',(46.,10.5,39.2));
#1252=CARTESIAN_POINT('Ctrl Pts',(43.,10.5,39.2));
#1253=CARTESIAN_POINT('Ctrl Pts',(46.,8.5,36.2));
#1254=CARTESIAN_POINT('Ctrl Pts',(46.,8.5,39.2));
#1255=CARTESIAN_POINT('Ctrl Pts',(43.,8.5,39.2));
#1256=CARTESIAN_POINT('',(46.,8.5,36.2));
#1257=CARTESIAN_POINT('',(44.,10.5,36.2));
#1258=CARTESIAN_POINT('Origin',(44.,8.5,36.2));
#1259=CARTESIAN_POINT('',(43.,10.5,37.2));
#1260=CARTESIAN_POINT('Origin',(43.,10.5,36.2));
#1261=CARTESIAN_POINT('',(43.,8.5,39.2));
#1262=CARTESIAN_POINT('Origin',(43.,8.5,37.2));
#1263=CARTESIAN_POINT('Origin',(43.,8.5,36.2));
#1264=CARTESIAN_POINT('Origin',(10.,8.5,37.2));
#1265=CARTESIAN_POINT('',(0.999999999999999,10.5,37.2));
#1266=CARTESIAN_POINT('',(0.999999999999999,8.5,39.2));
#1267=CARTESIAN_POINT('Origin',(0.999999999999999,8.5,37.2));
#1268=CARTESIAN_POINT('',(10.,8.5,39.2));
#1269=CARTESIAN_POINT('',(10.,10.5,37.2));
#1270=CARTESIAN_POINT('Ctrl Pts',(0.999999999999999,10.5,37.2));
#1271=CARTESIAN_POINT('Ctrl Pts',(2.35922392732846E-15,10.5,37.2));
#1272=CARTESIAN_POINT('Ctrl Pts',(2.08166817117217E-15,10.5,36.2));
#1273=CARTESIAN_POINT('Ctrl Pts',(0.999999999999999,10.5,39.2));
#1274=CARTESIAN_POINT('Ctrl Pts',(-2.,10.5,39.2));
#1275=CARTESIAN_POINT('Ctrl Pts',(-2.,10.5,36.2));
#1276=CARTESIAN_POINT('Ctrl Pts',(0.999999999999999,8.5,39.2));
#1277=CARTESIAN_POINT('Ctrl Pts',(-2.,8.5,39.2));
#1278=CARTESIAN_POINT('Ctrl Pts',(-2.,8.5,36.2));
#1279=CARTESIAN_POINT('',(-1.59594559789866E-15,10.5,36.2));
#1280=CARTESIAN_POINT('Origin',(0.999999999999999,10.5,36.2));
#1281=CARTESIAN_POINT('',(-2.,8.5,36.2));
#1282=CARTESIAN_POINT('Origin',(-1.59594559789866E-15,8.5,36.2));
#1283=CARTESIAN_POINT('Origin',(0.999999999999999,8.5,36.2));
#1284=CARTESIAN_POINT('Origin',(-2.22044604925031E-15,8.5,8.3));
#1285=CARTESIAN_POINT('',(-2.22044604925031E-15,10.5,1.));
#1286=CARTESIAN_POINT('',(-2.,8.5,1.));
#1287=CARTESIAN_POINT('Origin',(-2.22044604925031E-15,8.5,1.));
#1288=CARTESIAN_POINT('',(-2.,8.5,8.3));
#1289=CARTESIAN_POINT('',(-2.22044604925031E-15,10.5,8.3));
#1290=CARTESIAN_POINT('Ctrl Pts',(4.16333634234434E-16,10.5,1.));
#1291=CARTESIAN_POINT('Ctrl Pts',(4.16333634234434E-16,10.5,1.38777878078145E-15));
#1292=CARTESIAN_POINT('Ctrl Pts',(1.,10.5,1.38777878078145E-15));
#1293=CARTESIAN_POINT('Ctrl Pts',(-2.,10.5,1.));
#1294=CARTESIAN_POINT('Ctrl Pts',(-2.,10.5,-2.));
#1295=CARTESIAN_POINT('Ctrl Pts',(1.,10.5,-2.));
#1296=CARTESIAN_POINT('Ctrl Pts',(-2.,8.5,1.));
#1297=CARTESIAN_POINT('Ctrl Pts',(-2.,8.5,-2.));
#1298=CARTESIAN_POINT('Ctrl Pts',(1.,8.5,-2.));
#1299=CARTESIAN_POINT('',(1.,10.5,1.45716771982052E-15));
#1300=CARTESIAN_POINT('Origin',(1.,10.5,1.));
#1301=CARTESIAN_POINT('',(1.,8.5,-2.));
#1302=CARTESIAN_POINT('Origin',(1.,8.5,1.45716771982052E-15));
#1303=CARTESIAN_POINT('Origin',(1.,8.5,1.));
#1304=CARTESIAN_POINT('Origin',(34.,8.5,0.));
#1305=CARTESIAN_POINT('',(43.,10.5,-5.20417042793042E-16));
#1306=CARTESIAN_POINT('',(43.,8.5,-2.));
#1307=CARTESIAN_POINT('Origin',(43.,8.5,-5.20417042793042E-16));
#1308=CARTESIAN_POINT('',(34.,8.5,-2.));
#1309=CARTESIAN_POINT('',(34.,10.5,0.));
#1310=CARTESIAN_POINT('Ctrl Pts',(43.,10.5,2.08166817117217E-15));
#1311=CARTESIAN_POINT('Ctrl Pts',(44.,10.5,1.80411241501588E-15));
#1312=CARTESIAN_POINT('Ctrl Pts',(44.,10.5,0.999999999999999));
#1313=CARTESIAN_POINT('Ctrl Pts',(43.,10.5,-2.));
#1314=CARTESIAN_POINT('Ctrl Pts',(46.,10.5,-2.));
#1315=CARTESIAN_POINT('Ctrl Pts',(46.,10.5,0.999999999999999));
#1316=CARTESIAN_POINT('Ctrl Pts',(43.,8.5,-2.));
#1317=CARTESIAN_POINT('Ctrl Pts',(46.,8.5,-2.));
#1318=CARTESIAN_POINT('Ctrl Pts',(46.,8.5,0.999999999999999));
#1319=CARTESIAN_POINT('',(44.,10.5,0.999999999999999));
#1320=CARTESIAN_POINT('Origin',(43.,10.5,0.999999999999999));
#1321=CARTESIAN_POINT('',(46.,8.5,1.));
#1322=CARTESIAN_POINT('Origin',(44.,8.5,0.999999999999999));
#1323=CARTESIAN_POINT('Origin',(43.,8.5,0.999999999999999));
#1324=CARTESIAN_POINT('Origin',(44.,8.5,28.9));
#1325=CARTESIAN_POINT('',(46.,8.5,28.9));
#1326=CARTESIAN_POINT('',(44.,10.5,28.9));
#1327=CARTESIAN_POINT('Origin',(22.,10.5,18.6));
#1328=CARTESIAN_POINT('',(10.6999999999999,10.5,15.5));
#1329=CARTESIAN_POINT('Origin',(22.,8.5,18.6));
#1330=CARTESIAN_POINT('',(10.6999999999999,8.5,15.5));
#1331=CARTESIAN_POINT('Origin',(10.6999999999998,8.50000000000005,12.4));
#1332=UNCERTAINTY_MEASURE_WITH_UNIT(LENGTH_MEASURE(0.01),#1336,
'DISTANCE_ACCURACY_VALUE',
'Maximum model space distance between geometric entities at asserted c
onnectivities');
#1333=UNCERTAINTY_MEASURE_WITH_UNIT(LENGTH_MEASURE(0.01),#1336,
'DISTANCE_ACCURACY_VALUE',
'Maximum model space distance between geometric entities at asserted c
onnectivities');
#1334=(
GEOMETRIC_REPRESENTATION_CONTEXT(3)
GLOBAL_UNCERTAINTY_ASSIGNED_CONTEXT((#1332))
GLOBAL_UNIT_ASSIGNED_CONTEXT((#1336,#1338,#1339))
REPRESENTATION_CONTEXT('','3D')
);
#1335=(
GEOMETRIC_REPRESENTATION_CONTEXT(3)
GLOBAL_UNCERTAINTY_ASSIGNED_CONTEXT((#1333))
GLOBAL_UNIT_ASSIGNED_CONTEXT((#1336,#1338,#1339))
REPRESENTATION_CONTEXT('','3D')
);
#1336=(
LENGTH_UNIT()
NAMED_UNIT(*)
SI_UNIT(.MILLI.,.METRE.)
);
#1337=(
LENGTH_UNIT()
NAMED_UNIT(*)
SI_UNIT($,.METRE.)
);
#1338=(
NAMED_UNIT(*)
PLANE_ANGLE_UNIT()
SI_UNIT($,.RADIAN.)
);
#1339=(
NAMED_UNIT(*)
SI_UNIT($,.STERADIAN.)
SOLID_ANGLE_UNIT()
);
#1340=SHAPE_DEFINITION_REPRESENTATION(#1341,#1342);
#1341=PRODUCT_DEFINITION_SHAPE('',$,#1344);
#1342=SHAPE_REPRESENTATION('',(#772),#1334);
#1343=PRODUCT_DEFINITION_CONTEXT('part definition',#1348,'design');
#1344=PRODUCT_DEFINITION('2026-08-31-22-59-18-051','Top',#1345,#1343);
#1345=PRODUCT_DEFINITION_FORMATION('',$,#1350);
#1346=PRODUCT_RELATED_PRODUCT_CATEGORY('Top','Top',(#1350));
#1347=APPLICATION_PROTOCOL_DEFINITION('international standard',
'automotive_design',2009,#1348);
#1348=APPLICATION_CONTEXT(
'Core Data for Automotive Mechanical Design Process');
#1349=PRODUCT_CONTEXT('part definition',#1348,'mechanical');
#1350=PRODUCT('2026-08-31-22-59-18-051','Top',$,(#1349));
#1351=PRESENTATION_STYLE_ASSIGNMENT((#1352));
#1352=SURFACE_STYLE_USAGE(.BOTH.,#1353);
#1353=SURFACE_SIDE_STYLE('',(#1354));
#1354=SURFACE_STYLE_FILL_AREA(#1355);
#1355=FILL_AREA_STYLE('Steel - Satin',(#1356));
#1356=FILL_AREA_STYLE_COLOUR('Steel - Satin',#1357);
#1357=COLOUR_RGB('Steel - Satin',0.627450980392157,0.627450980392157,0.627450980392157);
ENDSEC;
END-ISO-10303-21;
